<svg opacity="0.25" fill="none" height="100%" width="100%" viewBox="0 0 1440 733" xmlns:xlink="http://www.w3.org/1999/xlink" xmlns="http://www.w3.org/2000/svg"><defs><linearGradient id="i0" gradientUnits="userSpaceOnUse" spreadMethod="pad" x2="552.75" y2="968.19" x1="1465.39" y1="-336.43"><stop offset="0%" stop-color="#f2fcff" /><stop offset="78%" stop-color="#5ebaf2" /><stop stop-opacity="0" offset="100%" stop-color="#545cff" /></linearGradient><filter filterUnits="userSpaceOnUse" height="200%" width="200%" y="-50%" x="-50%" id="f1"><feGaussianBlur result="blur0" stdDeviation="2.5" in="SourceGraphic" /></filter><linearGradient id="i2" gradientUnits="userSpaceOnUse" spreadMethod="pad" x2="581.95" y2="1104.99" x1="1494.59" y1="-199.63"><stop offset="0%" stop-color="#f2fcff" /><stop offset="78%" stop-color="#5ebaf2" /><stop stop-opacity="0" offset="100%" stop-color="#545cff" /></linearGradient><filter filterUnits="userSpaceOnUse" height="200%" width="200%" y="-50%" x="-50%" id="f3"><feGaussianBlur result="blur0" stdDeviation="2.5" in="SourceGraphic" /></filter><linearGradient id="i4" gradientUnits="userSpaceOnUse" spreadMethod="pad" x2="720" y2="757" x1="720" y1="-99.95"><stop stop-opacity="0.02" offset="0%" stop-color="#ffffff" /><stop stop-opacity="0" offset="100%" stop-color="#ffffff" /></linearGradient></defs><g style="isolation: isolate"><g style="mix-blend-mode: multiply" id="i5"><g transform="translate(645.974,98.162)"><animateTransform repeatCount="indefinite" type="translate" attributeName="transform" dur="9s" begin="0s" calcMode="spline" values="645.974 98.162; 645.974 98.162; 359.573 317.679; 232.665 261.085; 651.119 105.022; 645.974 98.162; 645.974 98.162" keyTimes="0; 0.003704; 0.196296; 0.392592; 0.603704; 0.996296; 1" keySplines="0 0 1 1; 0.65 0 0.36 1; 0.65 0 0.36 1; 0.65 0 0.36 1; 0.65 0 1 1; 0 0 1 1" fill="freeze" /><g transform="rotate(8)"><g transform="scale(1.62,1)"><animateTransform repeatCount="indefinite" type="scale" attributeName="transform" dur="9s" begin="0s" calcMode="spline" values="1.62 1; 1.62 1; 1.32 1; 1.62 1; 1.62 1" keyTimes="0; 0.003704; 0.603704; 0.996296; 1" keySplines="0 0 1 1; 0 0 1 1; 0 0 1 1; 0 0 1 1" fill="freeze" /><g filter="url(#f1)" transform="translate(-441.892,-88.457)"><g id="i6" transform="matrix(1,0,0,1,0,0)"><path fill="url(#i0)" d="M633.28,-26.1C322.24,56.7,156.88,243.6,113.08,326.7C38.68,502.5,-61.7,782.46,131.98,495.9C374.08,137.7,615.28,181.8,1157.98,27.9C1592.14,-95.22,1471.48,-242.4,1356.88,-300.6C1356.88,-300.6,1108.48,-300.6,1108.48,-300.6C1079.68,-243.6,944.32,-108.9,633.28,-26.1C633.28,-26.1,633.28,-26.1,633.28,-26.1Z" /></g></g></g></g></g></g><g style="mix-blend-mode: multiply" id="i7"><g transform="translate(976.739,350.573)"><animateTransform repeatCount="indefinite" type="translate" attributeName="transform" dur="9s" begin="0s" calcMode="spline" values="976.739 350.573; 976.739 350.573; 748.648 582.094; 715.837 548.575; 681.764 534.075; 887.561 343.461; 1033.318 179.217; 976.739 350.573; 976.739 350.573" keyTimes="0; 0.003704; 0.196296; 0.292593; 0.392592; 0.603704; 0.788889; 0.996296; 1" keySplines="0 0 1 1; 0 0 1 1; 0 0 1 1; 0 0 1 1; 0 0 1 1; 0 0 1 1; 0 0 1 1; 0 0 1 1" fill="freeze" /><g transform="rotate(10)"><g transform="scale(2.03,1)"><animateTransform repeatCount="indefinite" type="scale" attributeName="transform" dur="9s" begin="0s" calcMode="spline" values="2.03 1; 2.03 1; 1.814 1; 1.26 1; 1.623 2.15; 2.03 1; 2.03 1" keyTimes="0; 0.003704; 0.392592; 0.603704; 0.788889; 0.996296; 1" keySplines="0 0 1 1; 0 0 1 1; 0 0 1 1; 0 0 1 1; 0 0 1 1; 0 0 1 1" fill="freeze" /><g filter="url(#f3)" transform="translate(-504.474,-243.088)"><g id="i8" transform="matrix(1,0,0,1,0,0)"><path fill="url(#i2)" d="M662.48,110.7C351.44,193.5,186.08,380.4,142.28,463.5C67.88,639.3,-32.5,919.26,161.18,632.7C403.28,274.5,644.48,318.6,1187.18,164.7C1621.34,41.58,1500.68,-105.6,1386.08,-163.8C1386.08,-163.8,1137.68,-163.8,1137.68,-163.8C1108.88,-106.8,973.52,27.9,662.48,110.7C662.48,110.7,662.48,110.7,662.48,110.7Z" /></g></g></g></g></g></g><g transform="matrix(1,0,0,1,0,0)" id="i9"><g id="i10" transform="matrix(1,0,0,1,0,0)"><path fill="url(#i4)" d="M0,0C0,0,1440,0,1440,0C1440,0,1440,757,1440,757C1440,757,0,757,0,757C0,757,0,0,0,0Z" /></g></g></g></svg>